<svg width="20" height="25" viewBox="0 0 20 25" fill="none" xmlns="http://www.w3.org/2000/svg">
<path d="M10 25C7.10417 24.2708 4.71354 22.6094 2.82812 20.0156C0.942708 17.4219 0 14.5417 0 11.375V3.75L10 0L20 3.75V11.375C20 14.5417 19.0573 17.4219 17.1719 20.0156C15.2865 22.6094 12.8958 24.2708 10 25ZM10 22.375C12.1667 21.6875 13.9583 20.3125 15.375 18.25C16.7917 16.1875 17.5 13.8958 17.5 11.375V5.46875L10 2.65625L2.5 5.46875V11.375C2.5 13.8958 3.20833 16.1875 4.625 18.25C6.04167 20.3125 7.83333 21.6875 10 22.375ZM7.5 17.5H12.5C12.8542 17.5 13.151 17.3802 13.3906 17.1406C13.6302 16.901 13.75 16.6042 13.75 16.25V12.5C13.75 12.1458 13.6302 11.849 13.3906 11.6094C13.151 11.3698 12.8542 11.25 12.5 11.25V10C12.5 9.3125 12.2552 8.72396 11.7656 8.23438C11.276 7.74479 10.6875 7.5 10 7.5C9.3125 7.5 8.72396 7.74479 8.23438 8.23438C7.74479 8.72396 7.5 9.3125 7.5 10V11.25C7.14583 11.25 6.84896 11.3698 6.60938 11.6094C6.36979 11.849 6.25 12.1458 6.25 12.5V16.25C6.25 16.6042 6.36979 16.901 6.60938 17.1406C6.84896 17.3802 7.14583 17.5 7.5 17.5ZM8.75 11.25V10C8.75 9.64583 8.86979 9.34896 9.10938 9.10938C9.34896 8.86979 9.64583 8.75 10 8.75C10.3542 8.75 10.651 8.86979 10.8906 9.10938C11.1302 9.34896 11.25 9.64583 11.25 10V11.25H8.75Z" fill="#1E3B8A"/>
</svg>
