<svg width="20" height="28" viewBox="0 0 20 28" fill="none" xmlns="http://www.w3.org/2000/svg">
<path d="M1.375 18.8125C0.916667 18.0208 0.572917 17.2083 0.34375 16.375C0.114583 15.5417 0 14.6875 0 13.8125C0 11.0208 0.96875 8.64583 2.90625 6.6875C4.84375 4.72917 7.20833 3.75 10 3.75H10.2188L8.21875 1.75L9.96875 0L14.9688 5L9.96875 10L8.21875 8.25L10.2188 6.25H10C7.91667 6.25 6.14583 6.98438 4.6875 8.45312C3.22917 9.92188 2.5 11.7083 2.5 13.8125C2.5 14.3542 2.5625 14.8854 2.6875 15.4062C2.8125 15.9271 3 16.4375 3.25 16.9375L1.375 18.8125ZM10.0312 27.5L5.03125 22.5L10.0312 17.5L11.7812 19.25L9.78125 21.25H10C12.0833 21.25 13.8542 20.5156 15.3125 19.0469C16.7708 17.5781 17.5 15.7917 17.5 13.6875C17.5 13.1458 17.4375 12.6146 17.3125 12.0938C17.1875 11.5729 17 11.0625 16.75 10.5625L18.625 8.6875C19.0833 9.47917 19.4271 10.2917 19.6562 11.125C19.8854 11.9583 20 12.8125 20 13.6875C20 16.4792 19.0312 18.8542 17.0938 20.8125C15.1562 22.7708 12.7917 23.75 10 23.75H9.78125L11.7812 25.75L10.0312 27.5Z" fill="#1E3B8A"/>
</svg>
