<svg width="28" height="22" viewBox="0 0 28 22" fill="none" xmlns="http://www.w3.org/2000/svg">
<path d="M2.5 21.25C1.8125 21.25 1.22396 21.0052 0.734375 20.5156C0.244792 20.026 0 19.4375 0 18.75C0 18.0625 0.244792 17.474 0.734375 16.9844C1.22396 16.4948 1.8125 16.25 2.5 16.25C2.625 16.25 2.73438 16.25 2.82812 16.25C2.92188 16.25 3.02083 16.2708 3.125 16.3125L8.8125 10.625C8.77083 10.5208 8.75 10.4219 8.75 10.3281C8.75 10.2344 8.75 10.125 8.75 10C8.75 9.3125 8.99479 8.72396 9.48438 8.23438C9.97396 7.74479 10.5625 7.5 11.25 7.5C11.9375 7.5 12.526 7.74479 13.0156 8.23438C13.5052 8.72396 13.75 9.3125 13.75 10C13.75 10.0417 13.7292 10.25 13.6875 10.625L16.875 13.8125C16.9792 13.7708 17.0781 13.75 17.1719 13.75C17.2656 13.75 17.375 13.75 17.5 13.75C17.625 13.75 17.7344 13.75 17.8281 13.75C17.9219 13.75 18.0208 13.7708 18.125 13.8125L22.5625 9.375C22.5208 9.27083 22.5 9.17188 22.5 9.07812C22.5 8.98438 22.5 8.875 22.5 8.75C22.5 8.0625 22.7448 7.47396 23.2344 6.98438C23.724 6.49479 24.3125 6.25 25 6.25C25.6875 6.25 26.276 6.49479 26.7656 6.98438C27.2552 7.47396 27.5 8.0625 27.5 8.75C27.5 9.4375 27.2552 10.026 26.7656 10.5156C26.276 11.0052 25.6875 11.25 25 11.25C24.875 11.25 24.7656 11.25 24.6719 11.25C24.5781 11.25 24.4792 11.2292 24.375 11.1875L19.9375 15.625C19.9792 15.7292 20 15.8281 20 15.9219C20 16.0156 20 16.125 20 16.25C20 16.9375 19.7552 17.526 19.2656 18.0156C18.776 18.5052 18.1875 18.75 17.5 18.75C16.8125 18.75 16.224 18.5052 15.7344 18.0156C15.2448 17.526 15 16.9375 15 16.25C15 16.125 15 16.0156 15 15.9219C15 15.8281 15.0208 15.7292 15.0625 15.625L11.875 12.4375C11.7708 12.4792 11.6719 12.5 11.5781 12.5C11.4844 12.5 11.375 12.5 11.25 12.5C11.2083 12.5 11 12.4792 10.625 12.4375L4.9375 18.125C4.97917 18.2292 5 18.3281 5 18.4219C5 18.5156 5 18.625 5 18.75C5 19.4375 4.75521 20.026 4.26562 20.5156C3.77604 21.0052 3.1875 21.25 2.5 21.25ZM3.75 8.71875L2.96875 7.03125L1.28125 6.25L2.96875 5.46875L3.75 3.78125L4.53125 5.46875L6.21875 6.25L4.53125 7.03125L3.75 8.71875ZM17.5 7.5L16.3125 4.9375L13.75 3.75L16.3125 2.5625L17.5 0L18.6875 2.5625L21.25 3.75L18.6875 4.9375L17.5 7.5Z" fill="#1E3B8A"/>
</svg>
